<svg width="101" height="133" viewBox="0 0 101 133" fill="none" xmlns="http://www.w3.org/2000/svg">
<g clip-path="url(#clip0_101_199)">
<rect width="101" height="133" fill="white"/>
<rect x="1.5" y="33.5" width="99" height="99" fill="#000E8C" fill-opacity="0.2" stroke="black"/>
<path d="M51.2883 -0.408529L51 -0.611952L50.7117 -0.408529L3.94635 32.5915L2.65884 33.5H4.23463H97.7654H99.3412L98.0536 32.5915L51.2883 -0.408529Z" fill="#0C0505" stroke="black"/>
<rect x="13.5" y="123.5" width="5" height="8" fill="#D9D9D9" stroke="black"/>
<rect x="83.5" y="123.5" width="5" height="8" fill="#D9D9D9" stroke="black"/>
<path d="M13 54.5C13 48.701 17.701 44 23.5 44H78.5C84.299 44 89 48.701 89 54.5V54.5C89 60.299 84.299 65 78.5 65H23.5C17.701 65 13 60.299 13 54.5V54.5Z" fill="white"/>
<text fill="#0038FF" xml:space="preserve" style="white-space: pre" font-family="Lora" font-size="12" font-weight="600" letter-spacing="0em"><tspan x="20" y="58.892">RENT OUT</tspan></text>
<path d="M23.5 45H78.5V43H23.5V45ZM78.5 64H23.5V66H78.5V64ZM23.5 64C18.2533 64 14 59.7467 14 54.5H12C12 60.8513 17.1487 66 23.5 66V64ZM88 54.5C88 59.7467 83.7467 64 78.5 64V66C84.8513 66 90 60.8513 90 54.5H88ZM78.5 45C83.7467 45 88 49.2533 88 54.5H90C90 48.1487 84.8513 43 78.5 43V45ZM23.5 43C17.1487 43 12 48.1487 12 54.5H14C14 49.2533 18.2533 45 23.5 45V43Z" fill="black"/>
<path d="M71 98C71 93.0294 75.0294 89 80 89V89C84.9706 89 89 93.0294 89 98V98C89 102.971 84.9706 107 80 107V107C75.0294 107 71 102.971 71 98V98Z" fill="white"/>
<text fill="#0038FF" xml:space="preserve" style="white-space: pre" font-family="Lora" font-size="12" font-weight="600" letter-spacing="0em"><tspan x="77" y="102.392">+</tspan></text>
<path d="M80 106C75.5817 106 72 102.418 72 98H70C70 103.523 74.4772 108 80 108V106ZM88 98C88 102.418 84.4183 106 80 106V108C85.5228 108 90 103.523 90 98H88ZM80 90C84.4183 90 88 93.5817 88 98H90C90 92.4772 85.5228 88 80 88V90ZM80 88C74.4772 88 70 92.4772 70 98H72C72 93.5817 75.5817 90 80 90V88Z" fill="black"/>
<path d="M13 98C13 93.0294 17.0294 89 22 89V89C26.9706 89 31 93.0294 31 98V98C31 102.971 26.9706 107 22 107V107C17.0294 107 13 102.971 13 98V98Z" fill="white"/>
<text fill="#0038FF" xml:space="preserve" style="white-space: pre" font-family="Lora" font-size="12" font-weight="600" letter-spacing="0em"><tspan x="19" y="102.392">-</tspan></text>
<path d="M22 106C17.5817 106 14 102.418 14 98H12C12 103.523 16.4772 108 22 108V106ZM30 98C30 102.418 26.4183 106 22 106V108C27.5228 108 32 103.523 32 98H30ZM22 90C26.4183 90 30 93.5817 30 98H32C32 92.4772 27.5228 88 22 88V90ZM22 88C16.4772 88 12 92.4772 12 98H14C14 93.5817 17.5817 90 22 90V88Z" fill="black"/>
<text fill="black" xml:space="preserve" style="white-space: pre" font-family="Lora" font-size="11" font-weight="600" letter-spacing="0em"><tspan x="34" y="102.026">$1,200</tspan></text>
</g>
<defs>
<clipPath id="clip0_101_199">
<rect width="101" height="133" fill="white"/>
</clipPath>
</defs>
</svg>
